<?xml version="1.0" encoding="iso-8859-1"?>
<!-- Generator: Adobe Illustrator 16.0.0, SVG Export Plug-In . SVG Version: 6.00 Build 0)  -->
<!DOCTYPE svg PUBLIC "-//W3C//DTD SVG 1.1//EN" "http://www.w3.org/Graphics/SVG/1.1/DTD/svg11.dtd">
<svg xmlns="http://www.w3.org/2000/svg" xmlns:xlink="http://www.w3.org/1999/xlink" version="1.1" id="Capa_1" x="0px" y="0px" width="512px" height="512px" viewBox="0 0 60.847 60.847" style="enable-background:new 0 0 60.847 60.847;" xml:space="preserve">
<g>
	<path d="M13.763,0.057c-7.602,0-13.758,6.162-13.758,13.76s6.156,13.758,13.758,13.758c7.601,0,13.757-6.16,13.757-13.758   C27.516,6.219,21.363,0.057,13.763,0.057z M19.864,15.274h-4.623v4.641h-2.964v-4.641h-4.62v-2.941h4.62v-4.62h2.964v4.62h4.62   v2.941H19.864z M33.332,13.817c0,7.598,6.158,13.758,13.759,13.758s13.757-6.16,13.757-13.758S54.691,0.057,47.09,0.057   S33.332,6.219,33.332,13.817z M52.715,15.484h-11.25v-3.338h11.25V15.484z M27.516,47.028c0-7.596-6.157-13.762-13.757-13.762   C6.157,33.267,0,39.433,0,47.028c0,7.601,6.157,13.76,13.758,13.76C21.363,60.788,27.516,54.629,27.516,47.028z M15.582,52.409   l-1.854-3.241l-1.872,3.241H8.432l3.682-5.458l-3.521-5.302h3.45l1.801,3.12l1.759-3.12h3.352l-3.54,5.251l3.68,5.507h-3.513   V52.409z M47.09,33.269c-7.601,0-13.759,6.164-13.759,13.76c0,7.603,6.158,13.762,13.759,13.762s13.757-6.159,13.757-13.762   C60.845,39.433,54.693,33.269,47.09,33.269z M52.447,50.64H41.739v-2.604h10.708V50.64z M52.447,46.02H41.739v-2.6h10.708V46.02z" fill="#ef7d00"/>
</g>
<g>
</g>
<g>
</g>
<g>
</g>
<g>
</g>
<g>
</g>
<g>
</g>
<g>
</g>
<g>
</g>
<g>
</g>
<g>
</g>
<g>
</g>
<g>
</g>
<g>
</g>
<g>
</g>
<g>
</g>
</svg>
